<?xml version="1.0" encoding="UTF-8" standalone="no"?><!DOCTYPE svg PUBLIC "-//W3C//DTD SVG 1.1//EN" "http://www.w3.org/Graphics/SVG/1.1/DTD/svg11.dtd"><svg width="100%" height="100%" viewBox="0 0 298 182" version="1.1" xmlns="http://www.w3.org/2000/svg" xmlns:xlink="http://www.w3.org/1999/xlink" xml:space="preserve" xmlns:serif="http://www.serif.com/" style="fill-rule:evenodd;clip-rule:evenodd;stroke-miterlimit:1.5;"><rect id="LogoV4" x="-8216.9" y="-14541.8" width="12891.4" height="20867.1" style="fill:none;"/><g id="Logo-M-Black" serif:id="Logo M Black"></g><g id="Logo-M-Black1" serif:id="Logo M Black"></g><g id="Logo-S-Black" serif:id="Logo S Black"></g><g id="Logo-S-White" serif:id="Logo S White"><g transform="matrix(0.151149,0,0,0.151149,-4242.36,-891.288)"><g transform="matrix(297.951,0,0,297.951,28059.2,6803.78)"><path d="M0.545,-0.701l0,-0.088l-0.462,-0l0,0.79l0.089,-0l-0,-0.351l0.324,0l-0,-0.088l-0.324,-0l-0,-0.263l0.373,0Z" style="fill:#fff;fill-rule:nonzero;"/></g><g transform="matrix(297.951,0,0,297.951,28209,6803.78)"><path d="M0.654,-0l0.096,-0l-0.364,-0.799l-0.01,-0l-0.363,0.799l0.096,-0l0.058,-0.129l0.429,-0l0.058,0.129Zm-0.453,-0.207l0.181,-0.404l0.18,0.404l-0.361,0Z" style="fill:#fff;fill-rule:nonzero;"/></g><g transform="matrix(297.951,0,0,297.951,28445.1,6803.78)"><path d="M0.649,-0l-0.234,-0.317c0.096,-0.029 0.166,-0.117 0.166,-0.219c-0,-0.139 -0.12,-0.251 -0.266,-0.251l-0.232,-0l0,0.787l0.089,-0l0,-0.307l0.147,-0l0.22,0.307l0.11,-0Zm-0.477,-0.382l-0,-0.317l0.146,-0c0.093,-0 0.171,0.07 0.171,0.161c0,0.085 -0.077,0.156 -0.171,0.156l-0.146,-0Z" style="fill:#fff;fill-rule:nonzero;"/></g><g transform="matrix(297.951,0,0,297.951,28649.9,6803.78)"><path d="M0.844,-0.802l-0.375,0.626l-0.376,-0.626l-0.01,0l0,0.802l0.089,-0l-0,-0.535l0.296,0.522l0.001,-0l0.296,-0.521l0,0.534l0.089,-0l0,-0.802l-0.01,0Z" style="fill:#fff;fill-rule:nonzero;"/></g><g transform="matrix(297.951,0,0,297.951,28938,6803.78)"><path d="M0.571,-0.787l-0,0.349l-0.399,0l-0,-0.349l-0.089,-0l0,0.787l0.089,-0l-0,-0.35l0.399,-0l-0,0.35l0.088,-0l0,-0.787l-0.088,-0Z" style="fill:#fff;fill-rule:nonzero;"/></g><g transform="matrix(297.951,0,0,297.951,29168.1,6803.78)"><path d="M0.445,0.01c0.223,0 0.406,-0.181 0.406,-0.403c-0,-0.223 -0.183,-0.405 -0.405,-0.405c-0.222,-0 -0.404,0.182 -0.404,0.405c-0,0.222 0.182,0.403 0.403,0.403Zm0,-0.09c-0.173,0 -0.314,-0.141 -0.314,-0.314c0,-0.173 0.141,-0.315 0.314,-0.315c0.174,0 0.316,0.142 0.316,0.315c-0,0.173 -0.142,0.314 -0.316,0.314Z" style="fill:#fff;fill-rule:nonzero;"/></g><g transform="matrix(297.951,0,0,297.951,29442.8,6803.78)"><path d="M0.366,0.012c0.168,0 0.292,-0.134 0.292,-0.318l-0,-0.481l-0.09,-0l0,0.481c0,0.132 -0.086,0.228 -0.202,0.228c-0.116,0 -0.202,-0.096 -0.202,-0.228l0,-0.481l-0.089,-0l-0,0.481c-0,0.184 0.124,0.318 0.291,0.318Z" style="fill:#fff;fill-rule:nonzero;"/></g><g transform="matrix(297.951,0,0,297.951,29670,6803.78)"><path d="M0.301,0.011c0.151,-0 0.277,-0.089 0.277,-0.224c-0,-0.127 -0.112,-0.182 -0.23,-0.229c-0.102,-0.039 -0.188,-0.067 -0.188,-0.143c-0,-0.071 0.072,-0.126 0.156,-0.126c0.071,-0 0.135,0.04 0.16,0.099l0.067,-0.045c-0.029,-0.078 -0.109,-0.142 -0.226,-0.142c-0.138,0 -0.247,0.091 -0.247,0.212c0,0.121 0.108,0.169 0.205,0.206c0.1,0.038 0.213,0.081 0.213,0.169c0,0.078 -0.084,0.133 -0.187,0.133c-0.083,0 -0.164,-0.045 -0.199,-0.112l-0.069,0.05c0.038,0.084 0.138,0.152 0.268,0.152Z" style="fill:#fff;fill-rule:nonzero;"/></g><g transform="matrix(297.951,0,0,297.951,29860.9,6803.78)"><path d="M0.545,-0.7l0,-0.087l-0.462,-0l0,0.787l0.462,-0l0,-0.088l-0.373,-0l-0,-0.274l0.324,0l-0,-0.089l-0.324,0l-0,-0.249l0.373,0Z" style="fill:#fff;fill-rule:nonzero;"/></g><g transform="matrix(297.951,0,0,297.951,28351,7081)"><path d="M0.083,-0l0.089,-0l-0,-0.291l0.161,0c0.152,0 0.276,-0.108 0.276,-0.242c0,-0.14 -0.124,-0.254 -0.276,-0.254l-0.25,-0l0,0.787Zm0.25,-0.378l-0.161,-0l-0,-0.321l0.161,-0c0.103,-0 0.188,0.074 0.188,0.165c-0,0.086 -0.085,0.157 -0.188,0.156Z" style="fill:#fff;fill-rule:nonzero;"/></g><g transform="matrix(297.951,0,0,297.951,28548.9,7081)"><path d="M0.649,-0l-0.234,-0.317c0.096,-0.029 0.166,-0.117 0.166,-0.219c-0,-0.139 -0.12,-0.251 -0.266,-0.251l-0.232,-0l0,0.787l0.089,-0l0,-0.307l0.147,-0l0.22,0.307l0.11,-0Zm-0.477,-0.382l-0,-0.317l0.146,-0c0.093,-0 0.171,0.07 0.171,0.161c0,0.085 -0.077,0.156 -0.171,0.156l-0.146,-0Z" style="fill:#fff;fill-rule:nonzero;"/></g><g transform="matrix(297.951,0,0,297.951,28753.6,7081)"><path d="M0.654,-0l0.096,-0l-0.364,-0.799l-0.01,-0l-0.363,0.799l0.096,-0l0.058,-0.129l0.429,-0l0.058,0.129Zm-0.453,-0.207l0.181,-0.404l0.18,0.404l-0.361,0Z" style="fill:#fff;fill-rule:nonzero;"/></g><g transform="matrix(297.951,0,0,297.951,28982.5,7081)"><path d="M0.301,0.011c0.151,-0 0.277,-0.089 0.277,-0.224c-0,-0.127 -0.112,-0.182 -0.23,-0.229c-0.102,-0.039 -0.188,-0.067 -0.188,-0.143c-0,-0.071 0.072,-0.126 0.156,-0.126c0.071,-0 0.135,0.04 0.16,0.099l0.067,-0.045c-0.029,-0.078 -0.109,-0.142 -0.226,-0.142c-0.138,0 -0.247,0.091 -0.247,0.212c0,0.121 0.108,0.169 0.205,0.206c0.1,0.038 0.213,0.081 0.213,0.169c0,0.078 -0.084,0.133 -0.187,0.133c-0.083,0 -0.164,-0.045 -0.199,-0.112l-0.069,0.05c0.038,0.084 0.138,0.152 0.268,0.152Z" style="fill:#fff;fill-rule:nonzero;"/></g><g transform="matrix(297.951,0,0,297.951,29173.5,7081)"><path d="M0.301,0.011c0.151,-0 0.277,-0.089 0.277,-0.224c-0,-0.127 -0.112,-0.182 -0.23,-0.229c-0.102,-0.039 -0.188,-0.067 -0.188,-0.143c-0,-0.071 0.072,-0.126 0.156,-0.126c0.071,-0 0.135,0.04 0.16,0.099l0.067,-0.045c-0.029,-0.078 -0.109,-0.142 -0.226,-0.142c-0.138,0 -0.247,0.091 -0.247,0.212c0,0.121 0.108,0.169 0.205,0.206c0.1,0.038 0.213,0.081 0.213,0.169c0,0.078 -0.084,0.133 -0.187,0.133c-0.083,0 -0.164,-0.045 -0.199,-0.112l-0.069,0.05c0.038,0.084 0.138,0.152 0.268,0.152Z" style="fill:#fff;fill-rule:nonzero;"/></g><g transform="matrix(297.951,0,0,297.951,29364.4,7081)"><path d="M0.545,-0.7l0,-0.087l-0.462,-0l0,0.787l0.462,-0l0,-0.088l-0.373,-0l-0,-0.274l0.324,0l-0,-0.089l-0.324,0l-0,-0.249l0.373,0Z" style="fill:#fff;fill-rule:nonzero;"/></g><g transform="matrix(297.951,0,0,297.951,29553.2,7081)"><path d="M0.649,-0l-0.234,-0.317c0.096,-0.029 0.166,-0.117 0.166,-0.219c-0,-0.139 -0.12,-0.251 -0.266,-0.251l-0.232,-0l0,0.787l0.089,-0l0,-0.307l0.147,-0l0.22,0.307l0.11,-0Zm-0.477,-0.382l-0,-0.317l0.146,-0c0.093,-0 0.171,0.07 0.171,0.161c0,0.085 -0.077,0.156 -0.171,0.156l-0.146,-0Z" style="fill:#fff;fill-rule:nonzero;"/></g></g><g id="Logo-S" serif:id="Logo S"><path id="StanzeHausLinks" d="M4.945,91.302l108.279,-0l0.108,-34.669l23.14,-29.458l-15.476,-21.739l-46.321,52.363l-69.73,-0.173l-0,33.676Z" style="fill:none;"/><clipPath id="_clip1"><path d="M4.945,91.302l108.279,-0l0.108,-34.669l23.14,-29.458l-15.476,-21.739l-46.321,52.363l-69.73,-0.173l-0,33.676Z"/></clipPath><g clip-path="url(#_clip1)"><path d="M114.935,55.438l0,-44.469m2.305,-2.793l-0,44.112m2.398,-3.006l-0,-43.422m2.113,-0.702l0,41.522m3.254,-4.101l-0,-32.799m2.522,3.538l0,26.066m1.841,-23.62l0,21.341m2.743,-3.429l-0,-14.188m3.103,4.46l-0,5.985m-98.165,62.174l0,-34.358m-2.095,34.358l-0,-34.358m5.782,0l0,34.358m2.206,-0l0,-34.358m3.669,0l0,34.358m5.815,-0l0,-34.358m-2.085,34.358l-0,-34.358m4.467,0l-0,34.358m2.169,-0l-0,-34.358m3.661,0l0,34.358m2.935,-0l0,-34.358m1.79,0l0,34.358m3.653,-0l-0,-34.358m2.597,0l0,34.358m4.494,-0l-0,-36.059m-1.741,36.059l-0,-34.358m4.114,-4.878l-0,39.236m2.056,-0l-0,-41.309m2.113,-2.472l0,43.781m3.527,-0l0,-48.112m2.591,-2.673l0,50.785m4.584,-0l-0,-56.051m-2.946,56.051l-0,-52.707m6.049,-7.169l-0,59.876m2.331,-0l-0,-62.388m2.315,-2.909l-0,65.297m4.073,-0l-0,-70.057m-1.716,70.057l0,-67.868m4.778,-5.624l0,73.492m2.335,-0l0,-75.838m2.654,-3.342l0,79.243m-108.333,-0.063l-0.007,-34.563m2.53,-0l-0,34.563m4.583,-0l0,-34.563m-1.507,34.563l0,-34.563m4.61,-0l0,34.563m2.331,-0l0,-34.563m2.315,-0l0,34.542m3.606,0.022l-0.012,-34.359m3.542,0l-0,34.358m2.335,-0l-0,-34.358m2.859,0l0,34.358" style="fill:none;stroke:#fff;stroke-width:0.57px;"/></g><path id="HausLinks" d="M35.283,11.053l86.942,-8.213l17.327,24.336l-23.755,30.241l-0,36.395l-113.374,-0l-0.093,-36.639l32.953,-46.12Zm1.828,3.176l-31.445,44.009l0.082,32.241l106.715,-0l0,-34.214l22.927,-29.187l-14.766,-20.739l-83.513,7.89Z" style="fill:#fff;"/><path id="HausMitte" d="M140.287,31.892l86.966,-0.546l-20.926,26.071l-0,36.395l-86.243,-0l0,-36.395l20.203,-25.525Zm1.621,3.323l-18.49,23.362l-0,31.902l79.576,-0l-0,-34.234l17.274,-21.522l-78.36,0.492Z" style="fill:#fff;"/><path id="StanzeHausRechts" d="M293.333,91.302l0,-33.111l-40.671,-51.358l-40.709,51.464l0,33.005l81.38,-0Z" style="fill:none;"/><clipPath id="_clip2"><path d="M293.333,91.302l0,-33.111l-40.671,-51.358l-40.709,51.464l0,33.005l81.38,-0Z"/></clipPath><g clip-path="url(#_clip2)"><g id="LattungRechts"><path d="M214.714,92.107l-0,-39.752" style="fill:none;stroke:#fff;stroke-width:0.57px;"/><path d="M212.142,92.107l0,-36.813" style="fill:none;stroke:#fff;stroke-width:0.57px;"/><path d="M217.785,48.326l-0,43.781" style="fill:none;stroke:#fff;stroke-width:0.57px;"/><path d="M219.991,92.107l-0,-46.235" style="fill:none;stroke:#fff;stroke-width:0.57px;"/><path d="M223.592,40.723l-0,51.384" style="fill:none;stroke:#fff;stroke-width:0.57px;"/><path d="M227.023,36.99l-0,55.829" style="fill:none;stroke:#fff;stroke-width:0.57px;"/><path d="M229.269,92.728l0,-58.883" style="fill:none;stroke:#fff;stroke-width:0.57px;"/><path d="M231.856,31.045l0,61.37" style="fill:none;stroke:#fff;stroke-width:0.57px;"/><path d="M234.025,93.171l0,-65.121" style="fill:none;stroke:#fff;stroke-width:0.57px;"/><path d="M237.687,23.357l-0,69.245" style="fill:none;stroke:#fff;stroke-width:0.57px;"/><path d="M240.622,93.276l0,-73.89" style="fill:none;stroke:#fff;stroke-width:0.57px;"/><path d="M242.617,16.946l0,75.804" style="fill:none;stroke:#fff;stroke-width:0.57px;"/><path d="M246.064,92.754l0,-80.578" style="fill:none;stroke:#fff;stroke-width:0.57px;"/><path d="M248.662,9.723l-0,83.079" style="fill:none;stroke:#fff;stroke-width:0.57px;"/><path d="M253.018,93.228l0,-88.587" style="fill:none;stroke:#fff;stroke-width:0.57px;"/><path d="M250.777,93.28l-0,-87.005" style="fill:none;stroke:#fff;stroke-width:0.57px;"/><path d="M255.528,7.518l0,85.87" style="fill:none;stroke:#fff;stroke-width:0.57px;"/><path d="M257.584,93.029l0,-82.583" style="fill:none;stroke:#fff;stroke-width:0.57px;"/><path d="M259.766,12.518l0,80.385" style="fill:none;stroke:#fff;stroke-width:0.57px;"/><path d="M263.293,92.874l0,-75.102" style="fill:none;stroke:#fff;stroke-width:0.57px;"/><path d="M265.816,20.38l-0,72.791" style="fill:none;stroke:#fff;stroke-width:0.57px;"/><path d="M267.787,23.053l-0,70.118" style="fill:none;stroke:#fff;stroke-width:0.57px;"/><path d="M270.4,92.696l-0,-66.35" style="fill:none;stroke:#fff;stroke-width:0.57px;"/><path d="M273.502,30.037l0,62.898" style="fill:none;stroke:#fff;stroke-width:0.57px;"/><path d="M275.833,93.118l0,-59.5" style="fill:none;stroke:#fff;stroke-width:0.57px;"/><path d="M278.148,36.084l0,57.087" style="fill:none;stroke:#fff;stroke-width:0.57px;"/><path d="M280.568,39.579l-0,53.592" style="fill:none;stroke:#fff;stroke-width:0.57px;"/><path d="M282.222,93.182l-0,-51.665" style="fill:none;stroke:#fff;stroke-width:0.57px;"/><path d="M285.284,45.556l-0,47.369" style="fill:none;stroke:#fff;stroke-width:0.57px;"/><path d="M287.619,93.171l-0,-44.845" style="fill:none;stroke:#fff;stroke-width:0.57px;"/><path d="M290.478,51.907l0,41.018" style="fill:none;stroke:#fff;stroke-width:0.57px;"/><path d="M292.054,54.142l-0,38.783" style="fill:none;stroke:#fff;stroke-width:0.57px;"/></g></g><path id="HausRechts" d="M252.662,2.84l43.175,54.577l0,36.395l-86.351,-0l-0,-36.395l43.176,-54.577Zm-0,5.372l-39.843,50.365l0,31.902l79.685,-0l-0,-31.902l-39.842,-50.365Z" style="fill:#fff;"/><path id="StanzeHausMitte" d="M122.513,91.302l81.337,-0l-0,-33.676l-33.075,0l-15.479,-23.399l-13.706,0l-19.077,24.099l-0,32.976Z" style="fill:none;"/><clipPath id="_clip3"><path d="M122.513,91.302l81.337,-0l-0,-33.676l-33.075,0l-15.479,-23.399l-13.706,0l-19.077,24.099l-0,32.976Z"/></clipPath><g clip-path="url(#_clip3)"><path d="M126.913,92.107l-0,-40.361m-2.111,40.361l-0,-37.678m-2.106,37.678l-0.022,-21.31l-0.015,-13.38m8.215,-10.689l-0,45.379m2.206,-0l-0,-47.83m3.669,-4.857l0.274,14.567l-0.274,38.12m5.609,-0l0,-58.502m2.587,-0l-0,58.502m-4.624,-57.295l0,57.295m6.793,-0l0,-58.502m3.456,-0l0,58.502m2.867,-0l0,-58.502m2.064,-0l-0,58.502m3.652,-0l0,-53.042m2.598,4.123l-0,48.919m4.356,-0l0,-41.948m2.51,3.828l0,38.12m-5.206,-46.318l0,46.318m7.057,-0l-0,-35.457m2.319,0.976l-0,34.481m3.595,-0l0,-34.481m2.522,0l0,34.481m4.584,-0l0,-34.481m-1.841,34.481l0,-34.481m4.944,0l0,34.481m2.331,-0l0,-34.481m2.315,0l0,34.481m3.936,-0l0,-34.481m3.2,0l-0,34.481m2.335,-0l-0,-34.481m2.859,0l0,34.481" style="fill:none;stroke:#fff;stroke-width:0.57px;"/></g></g></g><g id="Logo-M-White"></g><g id="Logo-Small-Typo-Lang"></g><g id="Logo-XS-Black" serif:id="Logo XS Black"></g><g id="Logo-S-Black1" serif:id="Logo S Black"></g><g id="Logo-S-Black2" serif:id="Logo S Black"></g><g id="Favicon"></g><g id="LogoBlack"></g></svg>